<?xml version='1.0' encoding='utf-8'?>
<svg xmlns="http://www.w3.org/2000/svg" width="285.75mm" height="285.75mm" version="1.1" viewBox="0 0 285.75 285.75"> <g transform="translate(-412.82 -24.308)"> <g transform="matrix(2.9394 0 0 2.9394 4795.8 -3350.1)" stroke-width=".3402"> <path d="m-1450 1199.9c-0.6809 0.018-1.2692 0.4742-1.465 1.1267l-9.0863 30.274c-0.1491 0.5046 0.1408 1.0342 0.6455 1.1814 0.5038 0.1472 1.0313-0.1418 1.1786-0.6454l10.271-29.924c0.2433-0.8309-0.2315-1.702-1.0617-1.9475-0.1565-0.047-0.3192-0.069-0.4825-0.065z" color="#000000" color-rendering="auto" dominant-baseline="auto" fill="#305b73" image-rendering="auto" shape-rendering="auto" solid-color="#000000" stop-color="#000000" style="font-feature-settings:normal;font-variant-alternates:normal;font-variant-caps:normal;font-variant-east-asian:normal;font-variant-ligatures:normal;font-variant-numeric:normal;font-variant-position:normal;font-variation-settings:normal;inline-size:0;isolation:auto;mix-blend-mode:normal;shape-margin:0;shape-padding:0;text-decoration-color:#000000;text-decoration-line:none;text-decoration-style:solid;text-indent:0;text-orientation:mixed;text-transform:none;white-space:normal"/> <path d="m-1444.9 1199.3c0.681 0.018 1.2684 0.4745 1.465 1.1267l9.3214 30.91c0.1489 0.5047-0.1408 1.0343-0.6455 1.1815-0.5037 0.1472-1.0314-0.1418-1.1787-0.6454l-10.506-30.56c-0.2434-0.8308 0.2316-1.702 1.0617-1.9475 0.1566-0.046 0.3192-0.068 0.4825-0.065z" color="#000000" color-rendering="auto" dominant-baseline="auto" fill="#305b73" image-rendering="auto" shape-rendering="auto" solid-color="#000000" stop-color="#000000" style="font-feature-settings:normal;font-variant-alternates:normal;font-variant-caps:normal;font-variant-east-asian:normal;font-variant-ligatures:normal;font-variant-numeric:normal;font-variant-position:normal;font-variation-settings:normal;inline-size:0;isolation:auto;mix-blend-mode:normal;shape-margin:0;shape-padding:0;text-decoration-color:#000000;text-decoration-line:none;text-decoration-style:solid;text-indent:0;text-orientation:mixed;text-transform:none;white-space:normal"/> <path d="m-1446.8 1200.3c0.6533 0.1935 1.0868 0.7873 1.1235 1.4675l1.532 28.397c0.013 0.526-0.4038 0.9625-0.9293 0.9742-0.5247 0.012-0.9595-0.4039-0.9714-0.9285l-2.7671-28.366c-0.019-0.8656 0.6641-1.5841 1.5295-1.6064 0.1633 0 0.326 0.017 0.4828 0.062z" color="#000000" color-rendering="auto" dominant-baseline="auto" fill="#305b73" image-rendering="auto" shape-rendering="auto" solid-color="#000000" stop-color="#000000" style="font-feature-settings:normal;font-variant-alternates:normal;font-variant-caps:normal;font-variant-east-asian:normal;font-variant-ligatures:normal;font-variant-numeric:normal;font-variant-position:normal;font-variation-settings:normal;inline-size:0;isolation:auto;mix-blend-mode:normal;shape-margin:0;shape-padding:0;text-decoration-color:#000000;text-decoration-line:none;text-decoration-style:solid;text-indent:0;text-orientation:mixed;text-transform:none;white-space:normal"/> <path d="m-1451.4 1196.1h8.1783c1.2381 0 2.2349 0.9969 2.2349 2.2351v1.4838c0 1.2382-0.9968 2.235-2.2349 2.235h-8.1783c-1.2381 0-2.2349-0.9968-2.2349-2.235v-1.4838c0-1.2382 0.9968-2.2351 2.2349-2.2351z" fill="#305b73" fill-rule="evenodd" stop-color="#000000"/> <path d="m-1443.4 1197.3h3.9221c0.9663 0 1.7441 0.7778 1.7441 1.7441 0 0.9662-0.7778 1.7441-1.7441 1.7441h-3.9221c-0.9663 0-1.7441-0.7779-1.7441-1.7441 0-0.9663 0.7778-1.7441 1.7441-1.7441z" fill="#305b73" fill-rule="evenodd" stop-color="#000000"/> <path d="m-1438.3 1195.4c0.8269 0 1.4926 0.6657 1.4926 1.4926v4.3811c0 0.8269-0.6657 1.4926-1.4926 1.4926-0.827 0-1.4927-0.6657-1.4927-1.4926v-4.3811c0-0.8269 0.6657-1.4926 1.4927-1.4926z" fill="#305b73" fill-rule="evenodd" stop-color="#000000"/> <path d="m-1448.7 1184.9h2.6682c0.8268 0 1.4926 0.6657 1.4926 1.4926v10.82c0 0.827-0.6658 1.4927-1.4926 1.4927h-2.6682c-0.8269 0-1.4928-0.6657-1.4928-1.4927v-10.82c0-0.8269 0.6659-1.4926 1.4928-1.4926z" fill="#305b73" fill-rule="evenodd" stop-color="#000000"/> <path d="m-1437.5 1171.3 17.492-4.687c1.2344-0.3307 3.13 2.768 4.25 6.9479 1.12 4.18 1.0278 7.8113-0.2066 8.1421l-17.492 4.687c-1.2344 0.3307-3.13-2.768-4.2499-6.9479-1.1201-4.18-1.0279-7.8113 0.2065-8.1421z" fill="#1671a6" fill-rule="evenodd" stop-color="#000000"/> <path d="m-1424.3 1166.6 6.1148-1.6384c2.7972-0.7495 6.0863 2.5183 7.3748 7.3268 1.2885 4.8086 0.074 9.2831-2.7233 10.033l-6.1148 1.6385c-2.7971 0.7494-6.0862-2.5184-7.3747-7.3269-1.2884-4.8086-0.074-9.2831 2.7232-10.033z" fill="#115e8a" fill-rule="evenodd" stop-color="#000000"/> <path d="m-1425 1168-12.429 3.3303c-1.2344 0.3307-1.3263 3.9621-0.2065 8.142 1.1201 4.1799 3.0153 7.2788 4.2497 6.948l12.429-3.3303c2.6396-0.7073-1.5072-15.77-4.0439-15.09z" fill="#1671a6" fill-rule="evenodd" stop-color="#000000"/> <path d="m-1460 1178.9 22.623-6.0619c2.7852-1.3493 5.441 11.953 3.485 12.215l-22.821 6.1148c-1.2344 0.3308-2.9612-2.1386-3.8718-5.5368s-0.6498-6.4002 0.5848-6.7309z" fill="#077fc5" fill-rule="evenodd" stop-color="#000000"/> <path d="m-1470.9 1183.4 11.017-2.9023c2.5851-0.6792 3.7013 1.4145 4.3931 3.9963 0.6918 2.5817 0.6889 4.6435-1.8957 5.3242l-11.017 2.9011c-2.5851 0.6792-5.2171-0.8298-5.9089-3.4116-0.6918-2.5817 0.8269-5.2282 3.4115-5.9089z" fill="#1671a6" fill-rule="evenodd" stop-color="#000000"/> <path d="m-1472.4 1183.1 0.4655-0.1248c1.883-0.5045 4.0385 1.4756 4.8327 4.4399s-0.082 5.757-1.9652 6.2615l-0.4656 0.1247c-1.8829 0.5046-4.0385-1.4757-4.8327-4.4399-0.7943-2.9643 0.082-5.7569 1.9653-6.2614z" fill="#077fc5" fill-rule="evenodd" stop-color="#000000"/> <path d="m-1470 1188.2a3.7407 1.8867 75 0 1-0.8542 4.1015 3.7407 1.8867 75 0 1-2.7905-3.1249 3.7407 1.8867 75 0 1 0.8542-4.1016 3.7407 1.8867 75 0 1 2.7905 3.125z" fill="#0c4869" fill-rule="evenodd" stop-color="#000000"/> </g> </g> </svg>