<?xml version='1.0' encoding='utf-8'?>
<svg xmlns="http://www.w3.org/2000/svg" viewBox="0 0 640 480"> <g fill="#00f" stroke-width="0"> <path d="m102.54 16.684c-3.8233 1.1717-7.5577 2.6582-11.115 4.2754l3.4043 9.8892c3.4402-1.6079 7.0514-3.031 10.773-4.1702 46.63-14.297 97.068 15.131 112.62 65.85 0.19788 0.64304 0.40892 1.2899 0.59108 1.9341l9.0164-3.0134c-0.16739-0.57291-0.3458-1.1304-0.52168-1.7047-17.242-56.23-73.071-88.91-124.77-73.06z"/> <path d="m107.87 42.759c-2.8978 0.88356-5.7327 2.0142-8.429 3.2403l3.0964 9.1016c2.6063-1.2211 5.3455-2.3012 8.1696-3.1653 35.364-10.843 71.051 10.536 82.843 49.004 0.14803 0.48727 0.30917 0.97863 0.44879 1.4647l8.8942-2.9463c-0.12695-0.43434-0.26131-0.85413-0.39679-1.2896-13.074-42.647-55.417-67.431-94.626-55.409z"/> <path d="m112.73 66.563c-2.0534 0.62937-4.0632 1.4321-5.9752 2.3035l2.93 8.7439c1.847-0.86269 3.7928-1.6289 5.7906-2.2444 25.519-6.3153 45.409 5.7805 55.132 33.381 0.10638 0.34496 0.22125 0.69134 0.32053 1.0388l9.193-3.01c-0.091217-0.31011-0.1873-0.61037-0.28227-0.91929-9.2719-30.244-39.3-47.818-67.104-39.291l-0.0048-0.0026z"/> </g> <g fill="#00f"> <path d="m55.725 208.72c-8.2021 26.128-15.838 52.239-29.318 78.373 48.731-0.071594 59.006-0.23007 107.74-0.30185-8.7366-16.822-16.245-35.318-21.817-52.143-20.413-3.5217-39.108-10.97-56.601-25.928zm3.3241 14.643 7.7291 5.3094c-6.7528 24.332-19.004 44.838-28.339 52.691 7.4184-18.292 12.983-31.052 20.61-58.001z"/> <path d="m12.668 78.556c-7.2827 51.653 17.852 104.57 66.63 130.34 48.78 25.779 106.56 16.727 145.14-18.393l-211.77-111.95zm10.854 21.557 18.367 10.315c0.57931 30.138 8.185 46.983 18.725 70.804-21.861-21.455-36.538-47.461-37.092-81.119z"/> <g stroke-width="0"> <rect transform="matrix(2.8428 1.4908 -1.4908 2.8428 100.58 -2041.7)" x="318.18" y="591.62" width="3.283" height="8.0812"/> <path d="m138.59 119.88c-3.119 5.9475-9.9866 8.4934-15.339 5.6863-5.3527-2.807-7.1636-9.9041-4.0446-15.852 3.119-5.9475 9.9867-8.4933 15.339-5.6863 5.3528 2.8071 7.1636 9.9041 4.0446 15.852z"/> </g> </g> </svg>